# xmcd
# 
# Track frame offsets:
#     150
#     17260
#     35050
#     52923
#     67830
#     88048
#     101988
#     116675
#     135865
#     151405
#     166583
#     185305
# 
# Disc length: 2655
# 
# Revision: 3
# Processed by: cddbd v1.5.2PL0 Copyright (c) Steve Scherf et al.
# Submitted via: fre:ac v1.1beta1pre5
# 
DISCID=890a5d0c
DTITLE=Rodney Crowell - Greatest Hits
DYEAR=1993
DGENRE=Country
TTITLE0=Lovin' All Night
TTITLE1=Even Cowgirls Get The Blues
TTITLE2=What Kind Of Love
TTITLE3=I Couldn't Leave You If I Tried
TTITLE4=After All This Time
TTITLE5=Talking To A Stranger
TTITLE6=She's Crazy For Leaving
TTITLE7=Many A Long and Lonesome Highway
TTITLE8=If Looks Could Kill
TTITLE9=It's Such A Small World
TTITLE10=Things I Wish I'd Said
TTITLE11=Standing On A Rock
EXTD=
EXTT0=
EXTT1=
EXTT2=
EXTT3=
EXTT4=
EXTT5=
EXTT6=
EXTT7=
EXTT8=
EXTT9=
EXTT10=
EXTT11=
PLAYORDER=
